<svg width="800" height="450" viewBox="0 0 800 450" xmlns="http://www.w3.org/2000/svg">
  <defs>
    <linearGradient id="grad523" x1="0%" y1="0%" x2="100%" y2="100%">
      <stop offset="0%" style="stop-color:#ff9966;stop-opacity:1" />
      <stop offset="100%" style="stop-color:#ff5e62;stop-opacity:1" />
    </linearGradient>
  </defs>
  <rect width="800" height="450" fill="url(#grad523)" />
  
  <!-- Character: Extreme MBTI (Explosion of traits) -->
  <g transform="translate(400, 225)">
    <!-- Character -->
    <circle cx="0" cy="-50" r="45" fill="#ffdbac" />
    <path d="M-40,0 Q-40,100 0,100 Q40,100 40,0 Z" fill="#2d3436" />
    
    <!-- Spiky aura -->
    <path d="M-100,-100 L-70,-60 L-120,-20 L-80,20 L-110,80 L-50,50 L0,100 L50,50 L110,80 L80,20 L120,-20 L70,-60 L100,-100 L40,-70 L0,-120 L-40,-70 Z" fill="#f1c40f" opacity="0.6" />
    
    <!-- Symbols -->
    <text x="-150" y="-50" font-family="Arial" font-size="40" fill="#fff" font-weight="bold">T!!</text>
    <text x="120" y="50" font-family="Arial" font-size="40" fill="#fff" font-weight="bold">F??</text>
  </g>
  
  <text x="400" y="60" font-family="Arial, sans-serif" font-size="28" font-weight="bold" fill="#fff" text-anchor="middle">Extreme MBTI Types</text>
</svg>